<mxfile host="app.diagrams.net" modified="2022-01-30T08:22:36.510Z" agent="5.0 (Windows NT 10.0; Win64; x64) AppleWebKit/537.36 (KHTML, like Gecko) Chrome/95.0.4638.69 Safari/537.36" etag="_b5wf7EJwR5MGMLSVtsM" version="16.5.2" type="github">
  <diagram id="O8F0k6dNdtjOCHX-QNCT" name="Page-1">
    <mxGraphModel dx="1422" dy="787" grid="1" gridSize="10" guides="1" tooltips="1" connect="1" arrows="1" fold="1" page="1" pageScale="1" pageWidth="827" pageHeight="1169" math="0" shadow="0">
      <root>
        <mxCell id="0" />
        <mxCell id="1" parent="0" />
        <mxCell id="Gx86y8oouXvcbp2DKHLr-3" value="" style="edgeStyle=orthogonalEdgeStyle;rounded=0;orthogonalLoop=1;jettySize=auto;html=1;" edge="1" parent="1" source="Gx86y8oouXvcbp2DKHLr-1" target="Gx86y8oouXvcbp2DKHLr-2">
          <mxGeometry relative="1" as="geometry" />
        </mxCell>
        <mxCell id="Gx86y8oouXvcbp2DKHLr-1" value="首页/home" style="rounded=0;whiteSpace=wrap;html=1;" vertex="1" parent="1">
          <mxGeometry x="40" y="40" width="120" height="60" as="geometry" />
        </mxCell>
        <mxCell id="Gx86y8oouXvcbp2DKHLr-5" value="" style="edgeStyle=orthogonalEdgeStyle;rounded=0;orthogonalLoop=1;jettySize=auto;html=1;" edge="1" parent="1" source="Gx86y8oouXvcbp2DKHLr-2" target="Gx86y8oouXvcbp2DKHLr-4">
          <mxGeometry relative="1" as="geometry" />
        </mxCell>
        <mxCell id="Gx86y8oouXvcbp2DKHLr-2" value="AMap.Geolocation&lt;br&gt;定位服务插件&lt;br&gt;获取用户当前精确位置信息" style="rounded=0;whiteSpace=wrap;html=1;" vertex="1" parent="1">
          <mxGeometry x="40" y="170" width="120" height="60" as="geometry" />
        </mxCell>
        <mxCell id="Gx86y8oouXvcbp2DKHLr-9" value="" style="edgeStyle=orthogonalEdgeStyle;rounded=0;orthogonalLoop=1;jettySize=auto;html=1;" edge="1" parent="1" source="Gx86y8oouXvcbp2DKHLr-4" target="Gx86y8oouXvcbp2DKHLr-8">
          <mxGeometry relative="1" as="geometry" />
        </mxCell>
        <mxCell id="Gx86y8oouXvcbp2DKHLr-14" value="" style="edgeStyle=orthogonalEdgeStyle;rounded=0;orthogonalLoop=1;jettySize=auto;html=1;" edge="1" parent="1" source="Gx86y8oouXvcbp2DKHLr-4" target="Gx86y8oouXvcbp2DKHLr-13">
          <mxGeometry relative="1" as="geometry" />
        </mxCell>
        <mxCell id="Gx86y8oouXvcbp2DKHLr-4" value="是否定位成功" style="rhombus;whiteSpace=wrap;html=1;rounded=0;" vertex="1" parent="1">
          <mxGeometry x="60" y="310" width="80" height="80" as="geometry" />
        </mxCell>
        <mxCell id="Gx86y8oouXvcbp2DKHLr-12" value="" style="edgeStyle=orthogonalEdgeStyle;rounded=0;orthogonalLoop=1;jettySize=auto;html=1;" edge="1" parent="1" source="Gx86y8oouXvcbp2DKHLr-8" target="Gx86y8oouXvcbp2DKHLr-11">
          <mxGeometry relative="1" as="geometry" />
        </mxCell>
        <mxCell id="Gx86y8oouXvcbp2DKHLr-8" value="搜索定位最近上车点" style="whiteSpace=wrap;html=1;rounded=0;" vertex="1" parent="1">
          <mxGeometry x="40" y="480" width="120" height="60" as="geometry" />
        </mxCell>
        <mxCell id="Gx86y8oouXvcbp2DKHLr-10" value="是" style="text;html=1;strokeColor=none;fillColor=none;align=center;verticalAlign=middle;whiteSpace=wrap;rounded=0;" vertex="1" parent="1">
          <mxGeometry x="40" y="410" width="60" height="30" as="geometry" />
        </mxCell>
        <mxCell id="Gx86y8oouXvcbp2DKHLr-11" value="自动定位出发点为上车点" style="whiteSpace=wrap;html=1;rounded=0;" vertex="1" parent="1">
          <mxGeometry x="40" y="620" width="120" height="60" as="geometry" />
        </mxCell>
        <mxCell id="Gx86y8oouXvcbp2DKHLr-18" value="" style="edgeStyle=orthogonalEdgeStyle;rounded=0;orthogonalLoop=1;jettySize=auto;html=1;" edge="1" parent="1" source="Gx86y8oouXvcbp2DKHLr-13" target="Gx86y8oouXvcbp2DKHLr-17">
          <mxGeometry relative="1" as="geometry" />
        </mxCell>
        <mxCell id="Gx86y8oouXvcbp2DKHLr-13" value="等待时间*2，重新定位" style="whiteSpace=wrap;html=1;rounded=0;" vertex="1" parent="1">
          <mxGeometry x="200" y="320" width="120" height="60" as="geometry" />
        </mxCell>
        <mxCell id="Gx86y8oouXvcbp2DKHLr-15" value="否" style="text;html=1;strokeColor=none;fillColor=none;align=center;verticalAlign=middle;whiteSpace=wrap;rounded=0;" vertex="1" parent="1">
          <mxGeometry x="130" y="300" width="60" height="30" as="geometry" />
        </mxCell>
        <mxCell id="Gx86y8oouXvcbp2DKHLr-16" value="" style="endArrow=classic;html=1;rounded=0;entryX=1;entryY=0.5;entryDx=0;entryDy=0;" edge="1" parent="1" target="Gx86y8oouXvcbp2DKHLr-2">
          <mxGeometry width="50" height="50" relative="1" as="geometry">
            <mxPoint x="210" y="200" as="sourcePoint" />
            <mxPoint x="160" y="199.5" as="targetPoint" />
          </mxGeometry>
        </mxCell>
        <mxCell id="Gx86y8oouXvcbp2DKHLr-17" value="" style="shape=waypoint;sketch=0;size=6;pointerEvents=1;points=[];fillColor=default;resizable=0;rotatable=0;perimeter=centerPerimeter;snapToPoint=1;rounded=0;" vertex="1" parent="1">
          <mxGeometry x="240" y="220" width="40" height="40" as="geometry" />
        </mxCell>
        <mxCell id="Gx86y8oouXvcbp2DKHLr-21" value="" style="edgeStyle=orthogonalEdgeStyle;rounded=0;orthogonalLoop=1;jettySize=auto;html=1;" edge="1" parent="1" source="Gx86y8oouXvcbp2DKHLr-19" target="Gx86y8oouXvcbp2DKHLr-2">
          <mxGeometry relative="1" as="geometry" />
        </mxCell>
        <mxCell id="Gx86y8oouXvcbp2DKHLr-24" value="" style="edgeStyle=orthogonalEdgeStyle;rounded=0;orthogonalLoop=1;jettySize=auto;html=1;" edge="1" parent="1" source="Gx86y8oouXvcbp2DKHLr-19" target="Gx86y8oouXvcbp2DKHLr-23">
          <mxGeometry relative="1" as="geometry" />
        </mxCell>
        <mxCell id="Gx86y8oouXvcbp2DKHLr-19" value="是否第二次定位失败" style="rhombus;whiteSpace=wrap;html=1;" vertex="1" parent="1">
          <mxGeometry x="220" y="160" width="80" height="80" as="geometry" />
        </mxCell>
        <mxCell id="Gx86y8oouXvcbp2DKHLr-22" value="否" style="text;html=1;strokeColor=none;fillColor=none;align=center;verticalAlign=middle;whiteSpace=wrap;rounded=0;" vertex="1" parent="1">
          <mxGeometry x="160" y="160" width="60" height="30" as="geometry" />
        </mxCell>
        <mxCell id="Gx86y8oouXvcbp2DKHLr-23" value="使用" style="rounded=0;whiteSpace=wrap;html=1;" vertex="1" parent="1">
          <mxGeometry x="380" y="170" width="120" height="60" as="geometry" />
        </mxCell>
        <mxCell id="Gx86y8oouXvcbp2DKHLr-25" value="是" style="text;html=1;strokeColor=none;fillColor=none;align=center;verticalAlign=middle;whiteSpace=wrap;rounded=0;" vertex="1" parent="1">
          <mxGeometry x="300" y="160" width="60" height="30" as="geometry" />
        </mxCell>
        <mxCell id="Gx86y8oouXvcbp2DKHLr-28" style="edgeStyle=orthogonalEdgeStyle;rounded=0;orthogonalLoop=1;jettySize=auto;html=1;exitX=0.5;exitY=0;exitDx=0;exitDy=0;entryX=0.5;entryY=0;entryDx=0;entryDy=0;fontSize=6;" edge="1" parent="1" source="Gx86y8oouXvcbp2DKHLr-26" target="Gx86y8oouXvcbp2DKHLr-2">
          <mxGeometry relative="1" as="geometry" />
        </mxCell>
        <mxCell id="Gx86y8oouXvcbp2DKHLr-31" value="" style="edgeStyle=orthogonalEdgeStyle;rounded=0;orthogonalLoop=1;jettySize=auto;html=1;fontSize=6;" edge="1" parent="1" source="Gx86y8oouXvcbp2DKHLr-26" target="Gx86y8oouXvcbp2DKHLr-30">
          <mxGeometry relative="1" as="geometry" />
        </mxCell>
        <mxCell id="Gx86y8oouXvcbp2DKHLr-26" value="使用misc/PositionPicker&lt;br&gt;默认定位" style="rounded=0;whiteSpace=wrap;html=1;" vertex="1" parent="1">
          <mxGeometry x="380" y="170" width="120" height="60" as="geometry" />
        </mxCell>
        <mxCell id="Gx86y8oouXvcbp2DKHLr-27" value="&lt;p style=&quot;box-sizing: border-box ; margin: 0px 0px 20px ; font-weight: 400 ; color: rgb(60 , 61 , 63) ; line-height: 1 ; padding: 30px 0px 20px ; border-width: 0px 0px 1px ; border-bottom-style: solid ; border-bottom-color: rgb(231 , 231 , 231) ; background-color: rgb(255 , 255 , 255) ; font-size: 18px&quot;&gt;AMap.Geolocation 插件&lt;br&gt;&lt;span style=&quot;color: rgb(118 , 118 , 118) ; background-color: rgb(255 , 255 , 255) ; font-size: 14px&quot;&gt;手机端优先使用浏览器定位，失败后使用IP定位&lt;/span&gt;&lt;/p&gt;" style="text;html=1;align=center;verticalAlign=middle;resizable=0;points=[];autosize=1;strokeColor=none;fillColor=none;" vertex="1" parent="1">
          <mxGeometry x="210" y="40" width="310" height="110" as="geometry" />
        </mxCell>
        <mxCell id="Gx86y8oouXvcbp2DKHLr-29" value="同时继续重新定位" style="text;html=1;strokeColor=none;fillColor=none;align=center;verticalAlign=middle;whiteSpace=wrap;rounded=0;fontSize=6;" vertex="1" parent="1">
          <mxGeometry x="230" y="120" width="60" height="30" as="geometry" />
        </mxCell>
        <mxCell id="Gx86y8oouXvcbp2DKHLr-32" style="edgeStyle=orthogonalEdgeStyle;rounded=0;orthogonalLoop=1;jettySize=auto;html=1;exitX=0.5;exitY=1;exitDx=0;exitDy=0;entryX=1;entryY=0.5;entryDx=0;entryDy=0;fontSize=6;" edge="1" parent="1" source="Gx86y8oouXvcbp2DKHLr-30" target="Gx86y8oouXvcbp2DKHLr-8">
          <mxGeometry relative="1" as="geometry" />
        </mxCell>
        <mxCell id="Gx86y8oouXvcbp2DKHLr-30" value="是否定位成功" style="rhombus;whiteSpace=wrap;html=1;rounded=0;" vertex="1" parent="1">
          <mxGeometry x="400" y="300" width="80" height="80" as="geometry" />
        </mxCell>
        <mxCell id="Gx86y8oouXvcbp2DKHLr-33" value="是" style="text;html=1;strokeColor=none;fillColor=none;align=center;verticalAlign=middle;whiteSpace=wrap;rounded=0;fontSize=6;" vertex="1" parent="1">
          <mxGeometry x="250" y="480" width="60" height="30" as="geometry" />
        </mxCell>
      </root>
    </mxGraphModel>
  </diagram>
</mxfile>
